<svg width="196" height="115" viewBox="0 0 196 115" fill="none" xmlns="http://www.w3.org/2000/svg">
<path d="M22.0535 87.4275V92.4471C22.0535 92.8701 22.0535 92.8701 21.5843 92.8701C21.1264 92.8701 21.1264 92.8701 21.1264 92.4471V87.4275C21.1264 86.9649 21.1264 86.9649 21.5843 86.9649C22.0535 86.9649 22.0535 86.9649 22.0535 87.4275ZM21.5843 86.0116C21.0409 86.0116 21.0409 86.0116 21.0409 85.4533C21.0409 84.9174 21.0409 84.9174 21.5843 84.9174C22.1394 84.9174 22.1394 84.9174 22.1394 85.4533C22.1394 86.0116 22.1394 86.0116 21.5843 86.0116Z" fill="white"/>
<path d="M28.0882 92.8701C27.6247 92.8701 27.6247 92.8701 27.6247 92.4471V89.2324C27.6247 88.2171 26.9382 87.7658 26.0973 87.7658C25.4163 87.7658 24.8213 87.9745 24.524 88.1608V92.4471C24.524 92.8701 24.524 92.8701 24.0548 92.8701C23.5913 92.8701 23.5913 92.8701 23.5913 92.4471V87.8729C23.5913 87.6646 23.6486 87.5688 23.7858 87.4724C24.1175 87.2359 24.9357 86.8633 26.1258 86.8633C27.7279 86.8633 28.5516 87.715 28.5516 89.1929V92.4471C28.5516 92.8701 28.5516 92.8701 28.0882 92.8701" fill="white"/>
<path d="M34.5961 92.8701C34.1326 92.8701 34.1326 92.8701 34.1326 92.4471V89.2324C34.1326 88.2171 33.446 87.7658 32.6052 87.7658C31.9241 87.7658 31.3292 87.9745 31.0316 88.1608V92.4471C31.0316 92.8701 31.0316 92.8701 30.5624 92.8701C30.0991 92.8701 30.0991 92.8701 30.0991 92.4471V87.8729C30.0991 87.6646 30.1564 87.5688 30.2936 87.4724C30.6254 87.2359 31.4435 86.8633 32.6336 86.8633C34.2357 86.8633 35.0593 87.715 35.0593 89.1929V92.4471C35.0593 92.8701 35.0593 92.8701 34.5961 92.8701" fill="white"/>
<path d="M37.3223 89.1984C37.2881 89.6329 37.2824 90.1291 37.3223 90.6249C37.4082 91.4941 38.0203 92.0744 38.947 92.0744C39.8741 92.0744 40.4863 91.4941 40.572 90.6249C40.6121 90.1291 40.6121 89.6435 40.572 89.21C40.4863 88.3467 39.8854 87.7545 38.947 87.7545C38.0088 87.7545 37.4024 88.3412 37.3223 89.1984ZM41.5046 89.1534C41.5445 89.6047 41.5502 90.219 41.5046 90.6821C41.3786 91.9964 40.366 92.9717 38.947 92.9717C37.5339 92.9717 36.5213 91.9964 36.3955 90.6821C36.3555 90.2303 36.3555 89.627 36.3955 89.1812C36.527 87.8048 37.5339 86.8633 38.947 86.8633C40.366 86.8633 41.3731 87.7942 41.5046 89.1534" fill="white"/>
<path d="M47.229 87.0383C47.5494 87.1508 47.6009 87.1845 47.6009 87.2803C47.6009 87.3317 47.5608 87.467 47.5092 87.5966L45.6387 92.5259C45.5012 92.8701 45.5012 92.8701 44.8719 92.8701C44.2483 92.8701 44.2483 92.8701 44.1166 92.5259L42.2343 87.5907C42.183 87.4388 42.1372 87.3258 42.1372 87.2583C42.1372 87.1677 42.2004 87.1341 42.515 87.027C42.7095 86.9649 42.8295 86.9367 42.8811 86.9367C42.9839 86.9367 43.024 87.0153 43.0868 87.1962L44.8204 92.0071C44.8375 92.0525 44.849 92.0638 44.8834 92.0638C44.9177 92.0638 44.9294 92.0525 44.9461 92.0071L46.6685 87.1845C46.7257 86.9986 46.7601 86.9425 46.8687 86.9425C46.9202 86.9425 47.0059 86.9649 47.229 87.0383" fill="white"/>
<path d="M51.9751 91.7079V90.27C51.3916 90.1119 50.9742 90.022 50.465 90.022C49.4695 90.022 49.0116 90.4787 49.0116 91.082C49.0116 91.7704 49.4979 92.1537 50.4707 92.1537C51.0372 92.1537 51.6606 91.9391 51.9751 91.7079ZM52.6961 92.3571C52.3873 92.5767 51.5463 92.9717 50.3735 92.9717C48.8746 92.9717 48.1133 92.1986 48.1133 91.0879C48.1133 90.0783 48.8517 89.2544 50.3735 89.2544C50.9282 89.2544 51.3802 89.3284 51.9751 89.4915V89.0292C51.9751 88.1213 51.5404 87.7263 50.5621 87.7263C50.0301 87.7263 49.5554 87.8787 49.235 88.0083C49.0975 88.0644 49.0003 88.0982 48.9488 88.0982C48.8629 88.0928 48.8114 88.0591 48.697 87.7942C48.6056 87.5907 48.5769 87.5008 48.5769 87.4439C48.5769 87.3712 48.6283 87.3145 48.8058 87.2417C49.2865 87.027 49.9671 86.8633 50.5621 86.8633C52.0727 86.8633 52.8851 87.4895 52.8851 88.9729V91.9845C52.8851 92.1986 52.8679 92.2325 52.6961 92.3571" fill="white"/>
<path d="M56.0866 92.9717C54.8676 92.9717 54.3414 92.165 54.3414 91.0991V86.1357C54.3414 85.6506 54.3355 85.6506 54.7937 85.6506C55.2683 85.6506 55.2683 85.6506 55.2683 86.1357V86.9648H56.9733C57.4311 86.9648 57.4311 86.9761 57.4311 87.4102C57.4311 87.8333 57.4311 87.8333 56.9733 87.8333H55.2683V91.1328C55.2683 91.7079 55.5431 92.0922 56.1724 92.0922C56.5384 92.0922 56.8072 92.0183 57.0591 91.9224C57.1389 91.8946 57.2307 91.8716 57.2877 91.8716C57.4083 91.8716 57.4425 91.9508 57.5397 92.1934C57.6369 92.4357 57.6369 92.4638 57.6369 92.5033C57.6369 92.5938 57.5397 92.6559 57.3909 92.718C56.9674 92.8866 56.5672 92.9717 56.0866 92.9717" fill="white"/>
<path d="M59.2882 89.1984C59.2539 89.6329 59.2485 90.1291 59.2882 90.6249C59.3739 91.4941 59.9865 92.0744 60.9134 92.0744C61.8403 92.0744 62.4522 91.4941 62.538 90.6249C62.5776 90.1291 62.5776 89.6435 62.538 89.21C62.4522 88.3467 61.8517 87.7545 60.9134 87.7545C59.9751 87.7545 59.3685 88.3412 59.2882 89.1984ZM63.4703 89.1534C63.5105 89.6047 63.5165 90.219 63.4703 90.6821C63.3444 91.9964 62.3322 92.9717 60.9134 92.9717C59.4999 92.9717 58.4872 91.9964 58.3618 90.6821C58.3216 90.2303 58.3216 89.627 58.3618 89.1812C58.4932 87.8048 59.4999 86.8633 60.9134 86.8633C62.3322 86.8633 63.3389 87.7942 63.4703 89.1534" fill="white"/>
<path d="M67.9538 87.2298C67.9538 87.2637 67.9479 87.3145 67.8735 87.5688C67.7931 87.8334 67.7535 87.9007 67.6335 87.9007C67.5645 87.9007 67.4499 87.8787 67.2615 87.8334C67.1127 87.8001 66.9352 87.7658 66.6604 87.7658C65.9969 87.7658 65.6651 88.0479 65.6651 88.7582V92.4529C65.6651 92.8701 65.6651 92.8701 65.2074 92.8701C64.7328 92.8701 64.7328 92.8701 64.7328 92.4529V88.6518C64.7328 87.5345 65.3909 86.8633 66.5974 86.8633C66.9808 86.8633 67.3642 86.9195 67.6161 86.9875C67.7877 87.0383 67.9538 87.0887 67.9538 87.2298" fill="white"/>
<path d="M72.3744 87.3375C72.4998 87.4387 72.5514 87.506 72.5514 87.5853C72.5514 87.6694 72.5112 87.7263 72.3684 87.9007C72.2196 88.0876 72.1626 88.1377 72.0709 88.1377C71.9851 88.1377 71.9167 88.0815 71.7451 87.9857C71.4415 87.8107 71.0756 87.7263 70.715 87.7263C69.9597 87.7263 69.5079 88.0194 69.5079 88.5779C69.5079 88.9332 69.7197 89.1871 70.4001 89.3562C70.7726 89.4462 71.1385 89.52 71.2531 89.5478C72.3456 89.8305 72.8549 90.3432 72.8549 91.1725C72.8549 92.2779 71.9737 92.9717 70.715 92.9717C69.8511 92.9717 69.1761 92.7463 68.6038 92.3115C68.4952 92.2277 68.4154 92.165 68.4154 92.0637C68.4154 91.9964 68.4322 91.968 68.5924 91.7704C68.7526 91.5782 68.7988 91.5161 68.9014 91.5161C68.9872 91.5161 69.0616 91.5782 69.1588 91.6351C69.5595 91.9172 69.9999 92.1141 70.721 92.1141C71.5159 92.1141 71.9449 91.7367 71.9449 91.2062C71.9449 90.8116 71.6875 90.5634 71.0413 90.3994C70.6466 90.3037 70.5662 90.2872 70.1432 90.1912C69.1821 89.9599 68.6038 89.4407 68.6038 88.6003C68.6038 87.5232 69.4851 86.8633 70.7438 86.8633C71.4013 86.8633 72.0253 87.0719 72.3744 87.3375" fill="white"/>
<path d="M81.2442 87.055C81.4961 87.1456 81.57 87.1905 81.57 87.2982C81.57 87.3597 81.5358 87.4555 81.4614 87.6253L79.3214 92.752C78.9158 93.7165 78.2979 94.5398 77.737 94.9007C77.5996 94.9858 77.4796 95.0527 77.3938 95.0527C77.2966 95.0527 77.251 95.0024 77.0903 94.7711C76.9192 94.5233 76.8899 94.4835 76.8899 94.4104C76.8899 94.3311 76.9474 94.2803 77.1076 94.1791C77.6056 93.9029 78.0459 93.3947 78.4119 92.4929L76.2437 87.6363C76.1639 87.439 76.1292 87.3597 76.1292 87.2982C76.1292 87.2023 76.2263 87.1569 76.4723 87.0609C76.6841 86.9819 76.8215 86.9369 76.8731 86.9369C76.9876 86.9369 77.0164 87.0272 77.1022 87.242C78.1605 89.6776 78.3837 90.2305 78.8756 91.3702C78.887 91.3927 78.8984 91.4206 78.9272 91.4206C78.9554 91.4206 78.9668 91.3927 78.9782 91.3702C79.3616 90.389 79.7048 89.5256 80.6262 87.219C80.7006 87.0327 80.7348 86.9427 80.838 86.9427C80.895 86.9427 80.9922 86.9709 81.2442 87.055" fill="white"/>
<path d="M83.1924 89.1984C83.1582 89.6329 83.1527 90.1291 83.1924 90.6249C83.2782 91.4941 83.8901 92.0744 84.8176 92.0744C85.7439 92.0744 86.3564 91.4941 86.4422 90.6249C86.4819 90.1291 86.4819 89.6435 86.4422 89.21C86.3564 88.3467 85.7553 87.7545 84.8176 87.7545C83.8793 87.7545 83.2722 88.3412 83.1924 89.1984ZM87.3745 89.1534C87.4147 89.6047 87.4202 90.219 87.3745 90.6821C87.2486 91.9964 86.2359 92.9717 84.8176 92.9717C83.4042 92.9717 82.3915 91.9964 82.2655 90.6821C82.2253 90.2303 82.2253 89.627 82.2655 89.1812C82.3974 87.8048 83.4042 86.8633 84.8176 86.8633C86.2359 86.8633 87.2431 87.7942 87.3745 89.1534" fill="white"/>
<path d="M89.1802 86.9649C89.6379 86.9649 89.6379 86.9649 89.6379 87.4387V90.6705C89.6379 91.5504 90.2156 92.0692 91.1767 92.0692C91.8978 92.0692 92.4066 91.8492 92.7444 91.6403V87.4333C92.7444 86.9649 92.7444 86.9649 93.2076 86.9649C93.6713 86.9649 93.6713 86.9649 93.6713 87.4333V91.9343C93.6713 92.1821 93.6653 92.1879 93.4877 92.3115C93.1277 92.5547 92.361 92.9717 91.1708 92.9717C89.7117 92.9717 88.7164 92.1484 88.7164 90.6705V87.4387C88.7164 86.9649 88.7164 86.9649 89.1802 86.9649" fill="white"/>
<path d="M102.902 88.1998C102.965 88.3749 103.01 88.5608 103.01 88.6566C103.01 88.7753 102.935 88.7979 102.667 88.8711C102.455 88.9273 102.37 88.9558 102.301 88.9558C102.192 88.9558 102.186 88.8539 102.106 88.6682C101.843 88.0361 101.242 87.7545 100.647 87.7545C99.686 87.7545 99.0448 88.3691 98.9937 89.21C98.9709 89.5934 98.9655 90.2474 98.9937 90.62C99.0735 91.4941 99.6741 92.0805 100.647 92.0805C101.254 92.0805 101.837 91.7988 102.095 91.1612C102.175 90.9636 102.192 90.8737 102.301 90.8737C102.352 90.8737 102.455 90.8957 102.69 90.9697C102.976 91.0655 103.033 91.0933 103.033 91.1949C103.033 91.2796 102.97 91.4883 102.902 91.6461C102.69 92.1258 102.055 92.9717 100.641 92.9717C99.1599 92.9717 98.1526 91.9621 98.0668 90.6705C98.0386 90.225 98.0386 89.5934 98.0668 89.1421C98.1418 87.8107 99.1941 86.8633 100.653 86.8633C101.906 86.8633 102.678 87.5966 102.902 88.1998" fill="white"/>
<path d="M107.83 91.7079V90.27C107.247 90.1119 106.829 90.022 106.32 90.022C105.324 90.022 104.867 90.4787 104.867 91.082C104.867 91.7704 105.353 92.1537 106.326 92.1537C106.892 92.1537 107.515 91.9391 107.83 91.7079ZM108.552 92.3571C108.242 92.5767 107.401 92.9717 106.229 92.9717C104.73 92.9717 103.969 92.1986 103.969 91.0879C103.969 90.0783 104.707 89.2544 106.229 89.2544C106.784 89.2544 107.236 89.3284 107.83 89.4915V89.0292C107.83 88.1213 107.396 87.7263 106.417 87.7263C105.885 87.7263 105.41 87.8787 105.09 88.0083C104.953 88.0644 104.855 88.0982 104.804 88.0982C104.718 88.0928 104.667 88.0591 104.552 87.7942C104.461 87.5907 104.432 87.5008 104.432 87.4439C104.432 87.3712 104.483 87.3145 104.661 87.2417C105.142 87.027 105.822 86.8633 106.417 86.8633C107.928 86.8633 108.74 87.4895 108.74 88.9729V91.9845C108.74 92.1986 108.723 92.2325 108.552 92.3571" fill="white"/>
<path d="M114.756 92.8701C114.293 92.8701 114.293 92.8701 114.293 92.4471V89.2324C114.293 88.2171 113.606 87.7658 112.765 87.7658C112.084 87.7658 111.49 87.9745 111.192 88.1608V92.4471C111.192 92.8701 111.192 92.8701 110.723 92.8701C110.259 92.8701 110.259 92.8701 110.259 92.4471V87.8729C110.259 87.6646 110.317 87.5688 110.454 87.4724C110.786 87.2359 111.604 86.8633 112.793 86.8633C114.395 86.8633 115.22 87.715 115.22 89.1929V92.4471C115.22 92.8701 115.22 92.8701 114.756 92.8701" fill="white"/>
<path d="M124.364 88.1998C124.427 88.3749 124.473 88.5608 124.473 88.6566C124.473 88.7753 124.398 88.7979 124.129 88.8711C123.917 88.9273 123.831 88.9558 123.763 88.9558C123.654 88.9558 123.649 88.8539 123.569 88.6682C123.305 88.0361 122.705 87.7545 122.11 87.7545C121.148 87.7545 120.508 88.3691 120.456 89.21C120.433 89.5934 120.427 90.2474 120.456 90.62C120.536 91.4941 121.137 92.0805 122.11 92.0805C122.716 92.0805 123.299 91.7988 123.557 91.1612C123.637 90.9636 123.654 90.8737 123.763 90.8737C123.815 90.8737 123.917 90.8957 124.152 90.9697C124.438 91.0655 124.495 91.0933 124.495 91.1949C124.495 91.2796 124.433 91.4883 124.364 91.6461C124.152 92.1258 123.516 92.9717 122.104 92.9717C120.622 92.9717 119.615 91.9621 119.529 90.6705C119.5 90.225 119.5 89.5934 119.529 89.1421C119.604 87.8107 120.656 86.8633 122.116 86.8633C123.368 86.8633 124.14 87.5966 124.364 88.1998" fill="white"/>
<path d="M126.483 89.1984C126.449 89.6329 126.443 90.1291 126.483 90.6249C126.569 91.4941 127.181 92.0744 128.108 92.0744C129.035 92.0744 129.647 91.4941 129.733 90.6249C129.773 90.1291 129.773 89.6435 129.733 89.21C129.647 88.3467 129.046 87.7545 128.108 87.7545C127.17 87.7545 126.564 88.3412 126.483 89.1984ZM130.666 89.1534C130.706 89.6047 130.711 90.219 130.666 90.6821C130.54 91.9964 129.527 92.9717 128.108 92.9717C126.695 92.9717 125.682 91.9964 125.557 90.6821C125.516 90.2303 125.516 89.627 125.557 89.1812C125.688 87.8048 126.695 86.8633 128.108 86.8633C129.527 86.8633 130.534 87.7942 130.666 89.1534" fill="white"/>
<path d="M132.242 86.9649C132.7 86.9649 132.7 86.9649 132.7 87.4387V90.6705C132.7 91.5504 133.278 92.0692 134.239 92.0692C134.96 92.0692 135.469 91.8492 135.807 91.6403V87.4333C135.807 86.9649 135.807 86.9649 136.27 86.9649C136.733 86.9649 136.733 86.9649 136.733 87.4333V91.9343C136.733 92.1821 136.727 92.1879 136.55 92.3115C136.19 92.5547 135.423 92.9717 134.234 92.9717C132.774 92.9717 131.779 92.1484 131.779 90.6705V87.4387C131.779 86.9649 131.779 86.9649 132.242 86.9649" fill="white"/>
<path d="M142.863 92.8701C142.4 92.8701 142.4 92.8701 142.4 92.4471V89.2324C142.4 88.2171 141.714 87.7658 140.873 87.7658C140.192 87.7658 139.597 87.9745 139.3 88.1608V92.4471C139.3 92.8701 139.3 92.8701 138.831 92.8701C138.367 92.8701 138.367 92.8701 138.367 92.4471V87.8729C138.367 87.6646 138.424 87.5688 138.562 87.4724C138.894 87.2359 139.711 86.8633 140.902 86.8633C142.503 86.8633 143.328 87.715 143.328 89.1929V92.4471C143.328 92.8701 143.328 92.8701 142.863 92.8701" fill="white"/>
<path d="M146.557 92.9717C145.338 92.9717 144.812 92.165 144.812 91.0991V86.1357C144.812 85.6506 144.806 85.6506 145.264 85.6506C145.739 85.6506 145.739 85.6506 145.739 86.1357V86.9648H147.444C147.901 86.9648 147.901 86.9761 147.901 87.4102C147.901 87.8333 147.901 87.8333 147.444 87.8333H145.739V91.1328C145.739 91.7079 146.013 92.0922 146.643 92.0922C147.009 92.0922 147.277 92.0183 147.529 91.9224C147.609 91.8946 147.701 91.8716 147.758 91.8716C147.878 91.8716 147.913 91.9508 148.01 92.1934C148.107 92.4357 148.107 92.4638 148.107 92.5033C148.107 92.5938 148.01 92.6559 147.862 92.718C147.438 92.8866 147.038 92.9717 146.557 92.9717" fill="white"/>
<path d="M152.801 89.1984C152.767 89.6329 152.761 90.1291 152.801 90.6249C152.887 91.4941 153.499 92.0744 154.426 92.0744C155.352 92.0744 155.965 91.4941 156.051 90.6249C156.091 90.1291 156.091 89.6435 156.051 89.21C155.965 88.3467 155.364 87.7545 154.426 87.7545C153.488 87.7545 152.882 88.3412 152.801 89.1984ZM156.983 89.1534C157.023 89.6047 157.029 90.219 156.983 90.6821C156.857 91.9964 155.845 92.9717 154.426 92.9717C153.013 92.9717 152 91.9964 151.874 90.6821C151.834 90.2303 151.834 89.627 151.874 89.1812C152.006 87.8048 153.013 86.8633 154.426 86.8633C155.845 86.8633 156.851 87.7942 156.983 89.1534" fill="white"/>
<path d="M162.673 92.8701C162.21 92.8701 162.21 92.8701 162.21 92.4471V89.2324C162.21 88.2171 161.524 87.7658 160.682 87.7658C160.002 87.7658 159.407 87.9745 159.109 88.1608V92.4471C159.109 92.8701 159.109 92.8701 158.64 92.8701C158.177 92.8701 158.177 92.8701 158.177 92.4471V87.8729C158.177 87.6646 158.234 87.5688 158.371 87.4724C158.703 87.2359 159.521 86.8633 160.711 86.8633C162.313 86.8633 163.137 87.715 163.137 89.1929V92.4471C163.137 92.8701 163.137 92.8701 162.673 92.8701Z" fill="white"/>
<path d="M143.146 67.1117C142.778 67.0243 141.864 66.8359 141.068 66.6464C139.578 66.2979 139.092 65.8038 139.092 65.0625C139.092 64.0159 139.962 63.3907 141.613 63.3907C142.527 63.3907 143.412 63.6236 144.149 64.0159C144.665 64.2777 144.871 64.4521 145.166 64.4521C145.476 64.4521 145.653 64.2633 146.154 63.6236C146.685 62.9549 146.803 62.7809 146.803 62.5191C146.803 62.2574 146.655 62.054 146.243 61.705C145.255 60.9352 143.5 60.3967 141.775 60.3967C138.414 60.3967 135.878 62.1557 135.878 65.1208C135.878 67.5335 137.618 68.8852 140.021 69.4665C141.009 69.6988 141.392 69.786 142.292 69.9901C143.707 70.3384 144.237 70.847 144.237 71.6324C144.237 72.664 143.382 73.4343 141.643 73.4343C140.05 73.4343 138.885 72.9841 137.927 72.3442C137.574 72.1259 137.309 71.9224 137.043 71.9224C136.704 71.9224 136.527 72.1259 135.996 72.8091C135.451 73.4926 135.377 73.6375 135.377 73.8554C135.377 74.19 135.642 74.4085 136.025 74.6841C137.367 75.6874 139.092 76.3848 141.613 76.3848C144.945 76.3848 147.496 74.5536 147.496 71.5597C147.496 69.2191 146.095 67.8386 143.146 67.1117V67.1117ZM101.135 55.0339C99.3222 55.0339 99.3222 55.0339 99.3222 56.8218C99.3222 58.6676 99.3222 58.6676 101.135 58.6676C102.964 58.6676 102.964 58.6676 102.964 56.8218C102.964 55.0339 102.964 55.0339 101.135 55.0339ZM130.93 60.6734C129.279 60.6734 129.279 60.6734 129.279 62.3592V74.5386C129.279 76.1085 129.279 76.1085 130.93 76.1085C132.625 76.1085 132.625 76.1085 132.625 74.5386V62.3592C132.625 60.6734 132.625 60.6734 130.93 60.6734ZM130.93 55.0339C129.117 55.0339 129.117 55.0339 129.117 56.8218C129.117 58.6676 129.117 58.6676 130.93 58.6676C132.758 58.6676 132.758 58.6676 132.758 56.8218C132.758 55.0339 132.758 55.0339 130.93 55.0339ZM115.278 72.7072C114.643 73.1725 113.361 73.667 112.004 73.667C110.029 73.667 108.894 72.8674 108.894 71.3562C108.894 70.0917 109.881 69.074 111.99 69.074C113.14 69.074 114.084 69.263 115.278 69.612V72.7072ZM112.167 60.3967C110.589 60.3967 109.027 60.7751 107.817 61.2692C107.051 61.5599 106.86 61.7778 106.86 62.054C106.86 62.272 106.977 62.6059 107.258 63.2311C107.67 64.1322 107.833 64.2488 108.112 64.2633C108.333 64.2777 108.717 64.1322 109.115 64.0015C109.955 63.6964 111.002 63.3907 112.167 63.3907C114.393 63.3907 115.278 64.2777 115.278 66.109V67.2138C114.054 66.8792 112.933 66.7048 111.577 66.7048C107.523 66.7048 105.709 68.8852 105.709 71.4284C105.709 74.2046 107.656 76.3848 111.769 76.3848C114.983 76.3848 117.076 75.3528 117.887 74.8004C118.403 74.4518 118.506 74.2335 118.506 73.5943V66.109C118.506 62.1412 116.28 60.3967 112.167 60.3967ZM123.809 55.339C122.143 55.339 122.143 55.339 122.143 57.0686V74.5386C122.143 76.1085 122.128 76.1085 123.809 76.1085C125.475 76.1085 125.475 76.1085 125.475 74.5386V57.0686C125.475 55.339 125.46 55.339 123.809 55.339ZM101.135 60.6734C99.484 60.6734 99.484 60.6734 99.484 62.3592V74.5386C99.484 76.1085 99.484 76.1085 101.135 76.1085C102.83 76.1085 102.83 76.1085 102.83 74.5386V62.3592C102.83 60.6734 102.83 60.6734 101.135 60.6734V60.6734ZM36.1525 60.3967C34.1772 60.3967 32.5407 61.1675 31.3021 62.0395C30.2701 61.0075 28.9727 60.3967 27.0117 60.3967C24.8739 60.3967 22.6334 61.2981 21.6602 61.9812C21.218 62.3013 21.0409 62.6059 21.0409 63.2455V74.4807C21.0409 76.1085 21.0409 76.1085 22.707 76.1085C24.3878 76.1085 24.3878 76.1085 24.3878 74.4807V64.4812C24.9774 64.1175 26.1275 63.6525 27.0855 63.6525C28.9875 63.6525 29.9015 64.554 29.9015 66.5446V74.4807C29.9015 76.1085 29.9015 76.1085 31.5676 76.1085C33.2337 76.1085 33.2337 76.1085 33.2337 74.4807V66.4581C33.2337 65.8038 33.2038 65.2369 33.1156 64.7135C33.7937 64.1615 34.7813 63.6525 35.9754 63.6525C37.8922 63.6525 38.7472 64.6556 38.7472 66.5741V74.4807C38.7472 76.1085 38.7472 76.1085 40.3985 76.1085C42.0792 76.1085 42.0792 76.1085 42.0792 74.4807V66.3853C42.0792 62.6209 40.3393 60.3967 36.1525 60.3967V60.3967ZM54.3941 72.7072C53.7598 73.1725 52.4772 73.667 51.1206 73.667C49.1452 73.667 48.01 72.8674 48.01 71.3562C48.01 70.0917 48.9976 69.074 51.1062 69.074C52.2562 69.074 53.1996 69.263 54.3941 69.612V72.7072ZM51.283 60.3967C49.7054 60.3967 48.1428 60.7751 46.9338 61.2692C46.167 61.5599 45.9755 61.7778 45.9755 62.054C45.9755 62.272 46.0934 62.6059 46.3736 63.2311C46.7864 64.1322 46.9486 64.2488 47.2284 64.2633C47.4496 64.2777 47.8329 64.1322 48.2312 64.0015C49.0716 63.6964 50.1184 63.3907 51.283 63.3907C53.5091 63.3907 54.3941 64.2777 54.3941 66.109V67.2138C53.1699 66.8792 52.0498 66.7048 50.6932 66.7048C46.6389 66.7048 44.8256 68.8852 44.8256 71.4284C44.8256 74.2046 46.7715 76.3848 50.8847 76.3848C54.0988 76.3848 56.192 75.3528 57.0032 74.8004C57.5191 74.4518 57.6222 74.2335 57.6222 73.5943V66.109C57.6222 62.1412 55.3959 60.3967 51.283 60.3967ZM160.055 66.8792C160.041 67.2573 160.055 67.2573 159.687 67.2573H152.934C152.89 64.7718 154.07 63.2167 156.561 63.2167C158.773 63.2167 160.158 64.6556 160.055 66.8792ZM156.532 60.3967C152.772 60.3967 150.06 62.737 149.75 66.5014C149.676 67.4172 149.661 69.0451 149.735 70.1496C150.03 73.8122 152.551 76.3848 156.797 76.3848C158.684 76.3848 160.453 75.8762 161.441 75.4112C162.134 75.0914 162.296 74.8882 162.296 74.6408C162.296 74.4518 162.222 74.19 161.942 73.6087C161.544 72.7367 161.367 72.4605 161.014 72.4605C160.763 72.4605 160.439 72.6204 159.967 72.8091C159.023 73.202 157.991 73.4052 156.782 73.4052C154.541 73.4052 152.934 72.2275 152.934 70.0183V69.6555H161.294C162.915 69.6555 163.137 69.4953 163.137 67.7514V66.9378C163.137 62.9988 160.512 60.3967 156.532 60.3967V60.3967ZM82.2792 66.8792C82.264 67.2573 82.2792 67.2573 81.9105 67.2573H75.1578C75.1138 64.7718 76.2932 63.2167 78.785 63.2167C80.9966 63.2167 82.3823 64.6556 82.2792 66.8792ZM78.7557 60.3967C74.996 60.3967 72.2831 62.737 71.9736 66.5014C71.8998 67.4172 71.8851 69.0451 71.9584 70.1496C72.2538 73.8122 74.775 76.3848 79.0206 76.3848C80.9081 76.3848 82.6772 75.8762 83.6649 75.4112C84.3578 75.0914 84.5201 74.8882 84.5201 74.6408C84.5201 74.4518 84.4463 74.19 84.1661 73.6087C83.7681 72.7367 83.591 72.4605 83.237 72.4605C82.9867 72.4605 82.6625 72.6204 82.1907 72.8091C81.2469 73.202 80.2147 73.4052 79.006 73.4052C76.765 73.4052 75.1578 72.2275 75.1578 70.0183V69.6555H83.5172C85.1391 69.6555 85.3601 69.4953 85.3601 67.7514V66.9378C85.3601 62.9988 82.7358 60.3967 78.7557 60.3967ZM69.3439 72.7512C69.1522 72.7512 68.8427 72.8239 68.5033 72.9257C67.9289 73.1146 67.2653 73.2886 66.4986 73.2886C65.0537 73.2886 64.3901 72.446 64.3901 71.0072V63.7108H68.2823C69.8891 63.7108 69.8891 63.7108 69.8891 62.228C69.8891 60.7168 69.8891 60.6734 68.2823 60.6734H64.3901V58.7399C64.3901 57.0103 64.3901 57.0103 62.7096 57.0103C61.0442 57.0103 61.0583 57.0103 61.0583 58.7399V71.0072C61.0583 74.0595 62.5917 76.3848 66.0561 76.3848C67.3538 76.3848 68.5185 76.1665 69.6979 75.673C70.2436 75.44 70.494 75.251 70.494 74.9603C70.494 74.8443 70.494 74.6985 70.1845 73.8705C69.875 73.0418 69.7571 72.7512 69.3439 72.7512V72.7512ZM96.2765 60.7601C95.4658 60.5423 94.3896 60.3967 93.4019 60.3967C90.1141 60.3967 88.3596 62.2574 88.3596 65.2225V74.5681C88.3596 76.1085 88.3596 76.1085 90.0554 76.1085C91.7067 76.1085 91.7067 76.1085 91.7067 74.5681V65.7894C91.7067 64.2488 92.4142 63.6525 93.7554 63.6525C94.4189 63.6525 94.8615 63.7259 95.2448 63.8124C95.7314 63.9291 96.0702 63.9871 96.2472 63.9871C96.7039 63.9871 96.8516 63.7259 97.1171 62.8389C97.3826 61.9956 97.4119 61.7483 97.4119 61.6033C97.4119 61.1381 96.9254 60.9352 96.2765 60.7601" fill="white"/>
<path d="M71.785 52.0967L108.145 40.7946H71.785V52.0967ZM108.145 40.7946H174.835V20.0641L108.145 40.7946" fill="url(#paint0_linear_809_2106)"/>
<defs>
<linearGradient id="paint0_linear_809_2106" x1="73.1566" y1="56.384" x2="175.668" y2="23.5984" gradientUnits="userSpaceOnUse">
<stop stop-color="#295CB3"/>
<stop offset="0.00030602" stop-color="#295CB3"/>
<stop offset="1" stop-color="#3CBBF0"/>
</linearGradient>
</defs>
</svg>
