<svg width="133" height="47" viewBox="0 0 133 47" fill="none" xmlns="http://www.w3.org/2000/svg">
    <g clip-path="url(#clip0_1179_3266)">
        <path d="M105.739 39.5286C105.42 39.4546 104.63 39.2942 103.942 39.134C102.655 38.8378 102.235 38.4188 102.235 37.7892C102.235 36.9015 102.986 36.3709 104.414 36.3709C105.204 36.3709 105.969 36.5681 106.606 36.9015C107.052 37.1237 107.23 37.2713 107.485 37.2713C107.752 37.2713 107.906 37.1109 108.339 36.5681C108.798 36.0005 108.9 35.8529 108.9 35.6309C108.9 35.4087 108.772 35.2361 108.416 34.9402C107.561 34.2866 106.045 33.8301 104.554 33.8301C101.648 33.8301 99.4564 35.3223 99.4564 37.8387C99.4564 39.8862 100.96 41.0333 103.037 41.5267C103.891 41.7243 104.223 41.798 105 41.971C106.224 42.2672 106.682 42.6984 106.682 43.3648C106.682 44.2407 105.943 44.8944 104.439 44.8944C103.063 44.8944 102.056 44.5119 101.227 43.969C100.922 43.7841 100.692 43.6114 100.463 43.6114C100.17 43.6114 100.017 43.7841 99.5583 44.3639C99.087 44.944 99.0227 45.0669 99.0227 45.2519C99.0227 45.5358 99.2522 45.7207 99.5836 45.9548C100.743 46.8061 102.235 47.3984 104.414 47.3984C107.294 47.3984 109.498 45.8439 109.498 43.303C109.498 41.3172 108.288 40.1451 105.739 39.5286ZM69.4227 29.2784C67.8559 29.2784 67.8559 29.2784 67.8559 30.7959C67.8559 32.3621 67.8559 32.3621 69.4227 32.3621C71.0036 32.3621 71.0036 32.3621 71.0036 30.7959C71.0036 29.2784 71.0036 29.2784 69.4227 29.2784ZM95.1784 34.0645C93.751 34.0645 93.751 34.0645 93.751 35.495V45.8316C93.751 47.164 93.751 47.164 95.1784 47.164C96.6443 47.164 96.6443 47.164 96.6443 45.8316V35.495C96.6443 34.0645 96.6443 34.0645 95.1784 34.0645ZM95.1784 29.2784C93.6111 29.2784 93.6111 29.2784 93.6111 30.7959C93.6111 32.3621 93.6111 32.3621 95.1784 32.3621C96.7588 32.3621 96.7588 32.3621 96.7588 30.7959C96.7588 29.2784 96.7588 29.2784 95.1784 29.2784ZM81.6484 44.2774C81.1001 44.6723 79.9914 45.0916 78.8189 45.0916C77.1113 45.0916 76.1298 44.4134 76.1298 43.1303C76.1298 42.0572 76.9836 41.1941 78.8062 41.1941C79.8004 41.1941 80.6162 41.3542 81.6484 41.6503V44.2774ZM78.9592 33.8301C77.5952 33.8301 76.2448 34.1507 75.1995 34.5701C74.5367 34.8167 74.371 35.0016 74.371 35.2361C74.371 35.421 74.4728 35.7049 74.7155 36.2355C75.0718 37.0002 75.2121 37.0987 75.4543 37.1109C75.6454 37.1237 75.9768 37.0002 76.3208 36.8887C77.0474 36.6303 77.9524 36.3709 78.9592 36.3709C80.8833 36.3709 81.6484 37.1237 81.6484 38.6774V39.615C80.5904 39.3311 79.622 39.1834 78.4495 39.1834C74.9446 39.1834 73.3773 41.0333 73.3773 43.1921C73.3773 45.5477 75.0591 47.3984 78.6147 47.3984C81.393 47.3984 83.203 46.5226 83.9042 46.0538C84.3502 45.7576 84.4389 45.5727 84.4389 45.0302V38.6774C84.4389 35.3101 82.5148 33.8301 78.9592 33.8301ZM89.0229 29.5378C87.5828 29.5378 87.5828 29.5378 87.5828 31.0056V45.8316C87.5828 47.164 87.5701 47.164 89.0229 47.164C90.463 47.164 90.463 47.164 90.463 45.8316V31.0056C90.463 29.5378 90.4503 29.5378 89.0229 29.5378ZM69.4227 34.0645C67.9958 34.0645 67.9958 34.0645 67.9958 35.495V45.8316C67.9958 47.164 67.9958 47.164 69.4227 47.164C70.8886 47.164 70.8886 47.164 70.8886 45.8316V35.495C70.8886 34.0645 70.8886 34.0645 69.4227 34.0645ZM13.2496 33.8301C11.542 33.8301 10.1274 34.4838 9.05666 35.2238C8.16463 34.3479 7.04304 33.8301 5.34794 33.8301C3.49992 33.8301 1.56314 34.5945 0.721906 35.1743C0.339637 35.446 0.186523 35.7049 0.186523 36.2477V45.7825C0.186523 47.164 0.186523 47.164 1.62679 47.164C3.07968 47.164 3.07968 47.164 3.07968 45.7825V37.2958C3.58939 36.9877 4.58355 36.5931 5.41173 36.5931C7.0559 36.5931 7.84597 37.3576 7.84597 39.0475V45.7825C7.84597 47.164 7.84597 47.164 9.28618 47.164C10.7263 47.164 10.7263 47.164 10.7263 45.7825V38.9735C10.7263 38.4188 10.7006 37.9373 10.6243 37.4935C11.2105 37.0247 12.0642 36.5931 13.0965 36.5931C14.7535 36.5931 15.4925 37.4443 15.4925 39.0722V45.7825C15.4925 47.164 15.4925 47.164 16.92 47.164C18.3728 47.164 18.3728 47.164 18.3728 45.7825V38.9123C18.3728 35.7172 16.8688 33.8301 13.2496 33.8301ZM29.018 44.2774C28.47 44.6723 27.3613 45.0916 26.1885 45.0916C24.4809 45.0916 23.4996 44.4134 23.4996 43.1303C23.4996 42.0572 24.3533 41.1941 26.1761 41.1941C27.1702 41.1941 27.9857 41.3542 29.018 41.6503V44.2774ZM26.3289 33.8301C24.9652 33.8301 23.6144 34.1507 22.5693 34.5701C21.9065 34.8167 21.7409 35.0016 21.7409 35.2361C21.7409 35.421 21.8428 35.7049 22.085 36.2355C22.4419 37.0002 22.5821 37.0987 22.8239 37.1109C23.0152 37.1237 23.3465 37.0002 23.6908 36.8887C24.4173 36.6303 25.3222 36.3709 26.3289 36.3709C28.2532 36.3709 29.018 37.1237 29.018 38.6774V39.615C27.9601 39.3311 26.9918 39.1834 25.819 39.1834C22.3142 39.1834 20.7469 41.0333 20.7469 43.1921C20.7469 45.5477 22.429 47.3984 25.9846 47.3984C28.763 47.3984 30.5726 46.5226 31.2738 46.0538C31.7197 45.7576 31.8089 45.5727 31.8089 45.0302V38.6774C31.8089 35.3101 29.8844 33.8301 26.3289 33.8301ZM120.356 39.3311C120.343 39.6518 120.356 39.6518 120.037 39.6518H114.2C114.162 37.5425 115.181 36.2227 117.335 36.2227C119.247 36.2227 120.445 37.4443 120.356 39.3311ZM117.31 33.8301C114.06 33.8301 111.715 35.8158 111.447 39.0108C111.384 39.7877 111.371 41.1692 111.435 42.1064C111.69 45.2151 113.869 47.3984 117.539 47.3984C119.171 47.3984 120.7 46.9665 121.554 46.5716C122.153 46.3005 122.293 46.1278 122.293 45.9179C122.293 45.7576 122.229 45.5358 121.987 45.0421C121.642 44.3019 121.49 44.0675 121.184 44.0675C120.967 44.0675 120.687 44.2034 120.279 44.3639C119.464 44.6968 118.572 44.8695 117.526 44.8695C115.589 44.8695 114.2 43.8703 114.2 41.9955V41.6871H121.426C122.828 41.6871 123.019 41.5516 123.019 40.0716V39.3806C123.019 36.0378 120.751 33.8301 117.31 33.8301ZM53.1228 39.3311C53.1101 39.6518 53.1228 39.6518 52.8041 39.6518H46.9673C46.9293 37.5425 47.9488 36.2227 50.1028 36.2227C52.0141 36.2227 53.212 37.4443 53.1228 39.3311ZM50.077 33.8301C46.8274 33.8301 44.4824 35.8158 44.2143 39.0108C44.151 39.7877 44.1383 41.1692 44.2017 42.1064C44.457 45.2151 46.6364 47.3984 50.3065 47.3984C51.9376 47.3984 53.4674 46.9665 54.3207 46.5716C54.9201 46.3005 55.06 46.1278 55.06 45.9179C55.06 45.7576 54.9966 45.5358 54.7544 45.0421C54.4099 44.3019 54.2573 44.0675 53.9513 44.0675C53.7349 44.0675 53.4547 44.2034 53.0468 44.3639C52.231 44.6968 51.3387 44.8695 50.2938 44.8695C48.3567 44.8695 46.9673 43.8703 46.9673 41.9955V41.6871H54.1935C55.5956 41.6871 55.7866 41.5516 55.7866 40.0716V39.3806C55.7866 36.0378 53.518 33.8301 50.077 33.8301ZM41.9416 44.3147C41.7759 44.3147 41.5079 44.3761 41.215 44.4624C40.7179 44.6231 40.1448 44.7708 39.4815 44.7708C38.233 44.7708 37.6594 44.0553 37.6594 42.8347V36.6426H41.0239C42.4128 36.6426 42.4128 36.6426 42.4128 35.3842C42.4128 34.1012 42.4128 34.0645 41.0239 34.0645H37.6594V32.4235C37.6594 30.9561 37.6594 30.9561 36.2066 30.9561C34.7665 30.9561 34.7792 30.9561 34.7792 32.4235V42.8347C34.7792 45.4245 36.1043 47.3984 39.0994 47.3984C40.2208 47.3984 41.2276 47.2131 42.2471 46.7938C42.7189 46.5966 42.9353 46.4359 42.9353 46.1896C42.9353 46.0906 42.9353 45.9674 42.6677 45.2641C42.4002 44.561 42.2983 44.3147 41.9416 44.3147ZM65.2231 34.1385C64.5223 33.9535 63.592 33.8301 62.7377 33.8301C59.8961 33.8301 58.3795 35.4087 58.3795 37.9251V45.8561C58.3795 47.164 58.3795 47.164 59.8449 47.164C61.2723 47.164 61.2723 47.164 61.2723 45.8561V38.4062C61.2723 37.0987 61.8844 36.5931 63.0438 36.5931C63.6174 36.5931 63.9999 36.6548 64.3313 36.7288C64.7519 36.8275 65.0448 36.8765 65.1973 36.8765C65.5925 36.8765 65.7202 36.6548 65.9497 35.9021C66.1793 35.1865 66.2041 34.9772 66.2041 34.854C66.2041 34.4591 65.7836 34.2866 65.2231 34.1385Z" fill="#151118"/>
        <path d="M44.1604 26.7861L75.5905 17.1945H44.1604V26.7861ZM75.5905 17.1945H133.241V-0.398611L75.5905 17.1945Z" fill="url(#paint0_linear_1179_3266)"/>
    </g>
    <defs>
        <linearGradient id="paint0_linear_1179_3266" x1="45.3456" y1="30.425" x2="133.653" y2="1.65705" gradientUnits="userSpaceOnUse">
            <stop stop-color="#295CB3"/>
            <stop offset="0.00030602" stop-color="#295CB3"/>
            <stop offset="1" stop-color="#3CBBF0"/>
        </linearGradient>
        <clipPath id="clip0_1179_3266">
            <rect width="133" height="47" fill="white"/>
        </clipPath>
    </defs>
</svg>
