<svg width="24" height="24" viewBox="0 0 24 24" fill="none" xmlns="http://www.w3.org/2000/svg">
<path fill-rule="evenodd" clip-rule="evenodd" d="M9.16784 5.15817C9.2209 5.10804 9.28394 5.06826 9.35335 5.04111C9.42275 5.01397 9.49716 5 9.5723 5C9.64745 5 9.72185 5.01397 9.79126 5.04111C9.86066 5.06826 9.9237 5.10804 9.97677 5.15817L16.8322 11.619C16.8854 11.669 16.9276 11.7284 16.9564 11.7938C16.9852 11.8592 17 11.9293 17 12.0001C17 12.071 16.9852 12.1411 16.9564 12.2065C16.9276 12.2719 16.8854 12.3313 16.8322 12.3813L9.97677 18.8421C9.8695 18.9432 9.72401 19 9.5723 19C9.4206 19 9.27511 18.9432 9.16784 18.8421C9.06056 18.741 9.0003 18.6039 9.0003 18.4609C9.0003 18.3179 9.06056 18.1808 9.16784 18.0797L15.6199 12.0001L9.16784 5.92055C9.11463 5.87053 9.07242 5.81112 9.04362 5.74571C9.01482 5.6803 9 5.61018 9 5.53936C9 5.46854 9.01482 5.39842 9.04362 5.33301C9.07242 5.2676 9.11463 5.20819 9.16784 5.15817V5.15817Z" fill="#0D0E10"/>
</svg>
