<svg width="40" height="40" viewBox="0 0 40 40" fill="none" xmlns="http://www.w3.org/2000/svg">
<path d="M26.8571 20.4286C26.8571 19.9881 26.6786 19.6667 26.3214 19.4643L17.1786 13.75C16.8095 13.5119 16.4226 13.5 16.0179 13.7143C15.625 13.9286 15.4286 14.2619 15.4286 14.7143V26.1429C15.4286 26.5952 15.625 26.9286 16.0179 27.1429C16.2083 27.2381 16.3929 27.2857 16.5714 27.2857C16.8095 27.2857 17.0119 27.2262 17.1786 27.1071L26.3214 21.3929C26.6786 21.1905 26.8571 20.869 26.8571 20.4286ZM36 20.4286C36 21.5714 35.994 22.4643 35.9821 23.1071C35.9702 23.75 35.9196 24.5625 35.8304 25.5446C35.7411 26.5268 35.6071 27.4048 35.4286 28.1786C35.2381 29.0476 34.8274 29.7798 34.1964 30.375C33.5655 30.9702 32.8274 31.3155 31.9821 31.4107C29.3393 31.7083 25.3452 31.8571 20 31.8571C14.6548 31.8571 10.6607 31.7083 8.01786 31.4107C7.17262 31.3155 6.43155 30.9702 5.79464 30.375C5.15774 29.7798 4.74405 29.0476 4.55357 28.1786C4.3869 27.4048 4.25893 26.5268 4.16964 25.5446C4.08036 24.5625 4.02976 23.75 4.01786 23.1071C4.00595 22.4643 4 21.5714 4 20.4286C4 19.2857 4.00595 18.3929 4.01786 17.75C4.02976 17.1071 4.08036 16.2946 4.16964 15.3125C4.25893 14.3304 4.39286 13.4524 4.57143 12.6786C4.7619 11.8095 5.17262 11.0774 5.80357 10.4821C6.43452 9.8869 7.17262 9.54167 8.01786 9.44643C10.6607 9.14881 14.6548 9 20 9C25.3452 9 29.3393 9.14881 31.9821 9.44643C32.8274 9.54167 33.5685 9.8869 34.2054 10.4821C34.8423 11.0774 35.256 11.8095 35.4464 12.6786C35.6131 13.4524 35.7411 14.3304 35.8304 15.3125C35.9196 16.2946 35.9702 17.1071 35.9821 17.75C35.994 18.3929 36 19.2857 36 20.4286Z" fill="white"/>
</svg>
