<svg width="32" height="32" viewBox="0 0 32 32" fill="none" xmlns="http://www.w3.org/2000/svg">
<path d="M6 16C6 21.5228 10.4772 26 16 26C21.5228 26 26 21.5228 26 16C26 10.4771 21.5228 5.99995 16 5.99995C10.4772 5.99995 6 10.4771 6 16Z" stroke="white" stroke-width="1.5" stroke-linecap="round" stroke-linejoin="round"/>
<path d="M17 6.0498C17 6.0498 20 10.0004 20 16.0004C20 22.0004 17 25.9511 17 25.9511" stroke="white" stroke-width="1.5" stroke-linecap="round" stroke-linejoin="round"/>
<path d="M15 25.9511C15 25.9511 12 22.0004 12 16.0004C12 10.0004 15 6.0498 15 6.0498" stroke="white" stroke-width="1.5" stroke-linecap="round" stroke-linejoin="round"/>
<path d="M6.62964 19.5H25.3704" stroke="white" stroke-width="1.5" stroke-linecap="round" stroke-linejoin="round"/>
<path d="M6.62964 12.5H25.3704" stroke="white" stroke-width="1.5" stroke-linecap="round" stroke-linejoin="round"/>
</svg>
