<svg width="40" height="40" viewBox="0 0 40 40" fill="none" xmlns="http://www.w3.org/2000/svg">
<path d="M10.1768 5.78675C9.18902 6.17097 8.35366 6.68327 7.51829 7.5188C6.68293 8.34824 6.17073 9.18988 5.78659 10.1718C5.41463 11.1232 5.16463 12.2149 5.09146 13.8128C5.01829 15.4107 5 15.923 5 19.997C5 24.0709 5.01829 24.5832 5.09146 26.1811C5.16463 27.779 5.42073 28.8707 5.78659 29.8221C6.17073 30.8101 6.68293 31.6457 7.51829 32.4812C8.35366 33.3167 9.18902 33.829 10.1768 34.2133C11.128 34.5853 12.2195 34.8353 13.8171 34.9085C15.4146 34.9817 15.9268 35 20 35C24.0732 35 24.5854 34.9817 26.1829 34.9085C27.7805 34.8353 28.872 34.5792 29.8232 34.2133C30.811 33.829 31.6463 33.3167 32.4817 32.4812C33.3171 31.6457 33.8293 30.8101 34.2134 29.8221C34.5854 28.8707 34.8354 27.779 34.9085 26.1811C34.9817 24.5832 35 24.0709 35 19.997C35 15.923 34.9817 15.4107 34.9085 13.8128C34.8354 12.2149 34.5793 11.1232 34.2134 10.1718C33.8293 9.18988 33.3171 8.34824 32.4878 7.5188C31.6524 6.68327 30.8171 6.17097 29.8293 5.78675C28.878 5.41472 27.7866 5.16467 26.189 5.09148C24.5915 5.0183 24.0793 5 20.0061 5C15.9329 5 15.4207 5.0183 13.8232 5.09148C12.2195 5.15857 11.128 5.41472 10.1768 5.78675ZM26.061 7.78715C27.5244 7.85424 28.3171 8.09819 28.8476 8.30555C29.5488 8.58 30.0488 8.90323 30.5732 9.42773C31.0976 9.95223 31.4207 10.4523 31.6951 11.1537C31.9024 11.6843 32.1463 12.4771 32.2134 13.9408C32.2866 15.5204 32.2988 15.9961 32.2988 20.003C32.2988 24.01 32.2805 24.4857 32.2134 26.0653C32.1463 27.529 31.9024 28.3218 31.6951 28.8524C31.4207 29.5538 31.0976 30.0539 30.5732 30.5784C30.0488 31.1029 29.5488 31.4261 28.8476 31.7005C28.3171 31.9079 27.5244 32.1519 26.061 32.2189C24.4817 32.2921 24.0061 32.3043 20 32.3043C15.9939 32.3043 15.5183 32.286 13.939 32.2189C12.4756 32.1519 11.6829 31.9079 11.1524 31.7005C10.4512 31.4261 9.95122 31.1029 9.42683 30.5784C8.90244 30.0539 8.57927 29.5538 8.30488 28.8524C8.09756 28.3218 7.85366 27.529 7.78659 26.0653C7.71341 24.4857 7.70122 24.01 7.70122 20.003C7.70122 15.9961 7.71951 15.5204 7.78659 13.9408C7.85366 12.4771 8.09756 11.6843 8.30488 11.1537C8.57927 10.4523 8.90244 9.95223 9.42683 9.42773C9.95122 8.90323 10.4512 8.58 11.1524 8.30555C11.6829 8.09819 12.4756 7.85424 13.939 7.78715C15.5183 7.71397 15.9939 7.70177 20 7.70177C24.0061 7.70177 24.4817 7.71397 26.061 7.78715Z" fill="url(#paint0_radial_877_51)"/>
<path d="M12.2988 20.0031C12.2988 24.26 15.75 27.7059 20 27.7059C24.25 27.7059 27.7013 24.2539 27.7013 20.0031C27.7013 15.7522 24.2561 12.3003 20 12.3003C15.744 12.3003 12.2988 15.7461 12.2988 20.0031ZM25 20.0031C25 22.7658 22.7622 25.0041 20 25.0041C17.2379 25.0041 15 22.7658 15 20.0031C15 17.2403 17.2379 15.0021 20 15.0021C22.7622 15.0021 25 17.2403 25 20.0031Z" fill="url(#paint1_radial_877_51)"/>
<path d="M28.0122 13.7937C29.0056 13.7937 29.8109 12.9884 29.8109 11.9949C29.8109 11.0015 29.0056 10.1962 28.0122 10.1962C27.0187 10.1962 26.2134 11.0015 26.2134 11.9949C26.2134 12.9884 27.0187 13.7937 28.0122 13.7937Z" fill="#654C9F"/>
<defs>
<radialGradient id="paint0_radial_877_51" cx="0" cy="0" r="1" gradientUnits="userSpaceOnUse" gradientTransform="translate(5.54585 32.2534) rotate(-3.0007) scale(43.3728 36.8739)">
<stop stop-color="#FED576"/>
<stop offset="0.2634" stop-color="#F47133"/>
<stop offset="0.6091" stop-color="#BC3081"/>
<stop offset="1" stop-color="#4C63D2"/>
</radialGradient>
<radialGradient id="paint1_radial_877_51" cx="0" cy="0" r="1" gradientUnits="userSpaceOnUse" gradientTransform="translate(12.5782 26.2932) rotate(-3.0007) scale(22.2725 18.9353)">
<stop stop-color="#FED576"/>
<stop offset="0.2634" stop-color="#F47133"/>
<stop offset="0.6091" stop-color="#BC3081"/>
<stop offset="1" stop-color="#4C63D2"/>
</radialGradient>
</defs>
</svg>
