<svg width="24" height="24" viewBox="0 0 24 24" fill="none" xmlns="http://www.w3.org/2000/svg">
<path fill-rule="evenodd" clip-rule="evenodd" d="M14.8322 18.8418C14.7791 18.892 14.7161 18.9317 14.6467 18.9589C14.5772 18.986 14.5028 19 14.4277 19C14.3526 19 14.2781 18.986 14.2087 18.9589C14.1393 18.9317 14.0763 18.892 14.0232 18.8418L7.16784 12.381C7.11463 12.331 7.07242 12.2716 7.04362 12.2062C7.01482 12.1408 7 12.0707 7 11.9999C7 11.929 7.01482 11.8589 7.04362 11.7935C7.07242 11.7281 7.11463 11.6687 7.16784 11.6187L14.0232 5.15789C14.1305 5.0568 14.276 5 14.4277 5C14.5794 5 14.7249 5.0568 14.8322 5.15789C14.9394 5.25899 14.9997 5.39611 14.9997 5.53908C14.9997 5.68205 14.9394 5.81917 14.8322 5.92026L8.3801 11.9999L14.8322 18.0795C14.8854 18.1295 14.9276 18.1889 14.9564 18.2543C14.9852 18.3197 15 18.3898 15 18.4606C15 18.5315 14.9852 18.6016 14.9564 18.667C14.9276 18.7324 14.8854 18.7918 14.8322 18.8418V18.8418Z" fill="#0D0E10"/>
</svg>
