<svg width="40" height="40" viewBox="0 0 40 40" fill="none" xmlns="http://www.w3.org/2000/svg">
<path d="M31.4909 7C32.2244 7 32.8451 7.25673 33.3529 7.77018C33.8607 8.28364 34.1146 8.90712 34.1146 9.64062V18.4258C34.1146 20.4119 33.7309 22.3077 32.9635 24.1133C32.1962 25.9188 31.1665 27.4705 29.8743 28.7682C28.5822 30.066 27.0362 31.0957 25.2363 31.8574C23.4364 32.6191 21.549 33 19.5742 33C17.5881 33 15.6951 32.6191 13.8952 31.8574C12.0953 31.0957 10.5464 30.066 9.2487 28.7682C7.95095 27.4705 6.9184 25.9188 6.15104 24.1133C5.38368 22.3077 5 20.4119 5 18.4258V9.64062C5 8.9184 5.25955 8.29774 5.77865 7.77865C6.29774 7.25955 6.9184 7 7.64062 7H31.4909ZM19.5742 25.0104C20.1046 25.0104 20.5673 24.8242 20.9622 24.4518L27.8008 17.8841C28.2183 17.4892 28.4271 17.0095 28.4271 16.4453C28.4271 15.8924 28.2324 15.4212 27.8431 15.0319C27.4538 14.6426 26.9826 14.4479 26.4297 14.4479C25.8993 14.4479 25.4366 14.6341 25.0417 15.0065L19.5742 20.2539L14.1068 15.0065C13.7118 14.6341 13.2548 14.4479 12.7357 14.4479C12.1827 14.4479 11.7116 14.6426 11.3223 15.0319C10.9329 15.4212 10.7383 15.8924 10.7383 16.4453C10.7383 17.0208 10.9414 17.5004 11.3477 17.8841L18.2031 24.4518C18.5755 24.8242 19.0326 25.0104 19.5742 25.0104Z" fill="#EE4056"/>
</svg>
