<svg width="40" height="40" viewBox="0 0 40 40" fill="none" xmlns="http://www.w3.org/2000/svg">
<rect width="40" height="40" fill="#F7F8F9"/>
<path fill-rule="evenodd" clip-rule="evenodd" d="M12.3429 27.6571C12.5714 27.8857 12.8 28 13.1429 28C13.4857 28 13.7143 27.8857 13.9429 27.6571L20 21.6L26.0571 27.6571C26.2857 27.8857 26.6286 28 26.8571 28C27.0857 28 27.4286 27.8857 27.6571 27.6571C28.1143 27.2 28.1143 26.5143 27.6571 26.0571L21.6 20L27.6571 13.9429C28.1143 13.4857 28.1143 12.8 27.6571 12.3429C27.2 11.8857 26.5143 11.8857 26.0571 12.3429L20 18.4L13.9429 12.3429C13.4857 11.8857 12.8 11.8857 12.3429 12.3429C11.8857 12.8 11.8857 13.4857 12.3429 13.9429L18.4 20L12.3429 26.0571C11.8857 26.5143 11.8857 27.2 12.3429 27.6571Z" fill="#090E11"/>
</svg>
