<svg width="39" height="32" viewBox="0 0 39 32" fill="none" xmlns="http://www.w3.org/2000/svg">
<path d="M0 31.84V21.472C0 17.632 0.64 14.0907 1.92 10.848C3.28533 7.52001 5.58933 4.19201 8.832 0.864014L14.592 5.34401C12.544 7.39201 11.008 9.31201 9.984 11.104C9.04533 12.896 8.448 14.7307 8.192 16.608H15.232V31.84H0ZM22.912 31.84V21.472C22.912 17.632 23.552 14.0907 24.832 10.848C26.1973 7.52001 28.5013 4.19201 31.744 0.864014L37.504 5.34401C35.456 7.39201 33.92 9.31201 32.896 11.104C31.9573 12.896 31.36 14.7307 31.104 16.608H38.144V31.84H22.912Z" fill="#5C94C5"/>
</svg>
