<svg width="24" height="24" viewBox="0 0 24 24" fill="none" xmlns="http://www.w3.org/2000/svg">
<path d="M5.33325 12.0007C5.33325 15.6825 8.31802 18.6673 11.9999 18.6673C15.6818 18.6673 18.6666 15.6825 18.6666 12.0007C18.6666 8.31875 15.6818 5.33398 11.9999 5.33398C8.31802 5.33398 5.33325 8.31875 5.33325 12.0007Z" stroke="#344450" stroke-linecap="round" stroke-linejoin="round"/>
<path d="M12.6667 5.36621C12.6667 5.36621 14.6667 7.99996 14.6667 11.9999C14.6667 15.9999 12.6667 18.6337 12.6667 18.6337" stroke="#344450" stroke-linecap="round" stroke-linejoin="round"/>
<path d="M11.3333 18.6337C11.3333 18.6337 9.33325 15.9999 9.33325 11.9999C9.33325 7.99996 11.3333 5.36621 11.3333 5.36621" stroke="#344450" stroke-linecap="round" stroke-linejoin="round"/>
<path d="M5.75317 14.334H18.247" stroke="#344450" stroke-linecap="round" stroke-linejoin="round"/>
<path d="M5.75317 9.66602H18.247" stroke="#344450" stroke-linecap="round" stroke-linejoin="round"/>
</svg>
