<svg width="4" height="7" viewBox="0 0 4 7" fill="none"
    xmlns="http://www.w3.org/2000/svg">
    <path fill-rule="evenodd" clip-rule="evenodd" d="M3.67704 6.67704C3.65382 6.70032 3.62623 6.71879 3.59586 6.7314C3.56549 6.744 3.53293 6.75049 3.50004 6.75049C3.46716 6.75049 3.4346 6.744 3.40422 6.7314C3.37385 6.71879 3.34626 6.70032 3.32304 6.67704L0.323041 3.67704C0.29976 3.65382 0.281289 3.62623 0.268685 3.59586C0.256082 3.56549 0.249595 3.53293 0.249595 3.50004C0.249595 3.46716 0.256082 3.4346 0.268685 3.40422C0.281289 3.37385 0.29976 3.34626 0.323041 3.32304L3.32304 0.323041C3.36998 0.276098 3.43365 0.249726 3.50004 0.249726C3.56643 0.249726 3.6301 0.276098 3.67704 0.323041C3.72398 0.369985 3.75036 0.433654 3.75036 0.500041C3.75036 0.566429 3.72398 0.630098 3.67704 0.677042L0.853541 3.50004L3.67704 6.32304C3.70032 6.34626 3.71879 6.37385 3.7314 6.40422C3.744 6.4346 3.75049 6.46716 3.75049 6.50004C3.75049 6.53293 3.744 6.56549 3.7314 6.59586C3.71879 6.62623 3.70032 6.65382 3.67704 6.67704V6.67704Z" fill="#3366CC"/>
</svg>
