<svg width="16" height="16" viewBox="0 0 16 16" fill="none" xmlns="http://www.w3.org/2000/svg">
<mask id="path-1-inside-1_1177_2815" fill="white">
<path d="M11.06 10.666L8 7.60602L4.94 10.666L4 9.71935L8 5.71935L12 9.71935L11.06 10.666Z"/>
</mask>
<path d="M11.06 10.666L8 7.60602L4.94 10.666L4 9.71935L8 5.71935L12 9.71935L11.06 10.666Z" fill="#344450"/>
<path d="M11.06 10.666L9.64579 12.0802L11.065 13.4994L12.4792 12.0752L11.06 10.666ZM8 7.60602L9.41421 6.1918L8 4.77759L6.58579 6.1918L8 7.60602ZM4.94 10.666L3.5208 12.0752L4.93499 13.4994L6.35421 12.0802L4.94 10.666ZM4 9.71935L2.58579 8.30514L1.17656 9.71436L2.5808 11.1286L4 9.71935ZM8 5.71935L9.41421 4.30514L8 2.89092L6.58579 4.30514L8 5.71935ZM12 9.71935L13.4192 11.1286L14.8234 9.71436L13.4142 8.30514L12 9.71935ZM12.4742 9.2518L9.41421 6.1918L6.58579 9.02023L9.64579 12.0802L12.4742 9.2518ZM6.58579 6.1918L3.52579 9.2518L6.35421 12.0802L9.41421 9.02023L6.58579 6.1918ZM6.3592 9.25681L5.4192 8.31014L2.5808 11.1286L3.5208 12.0752L6.3592 9.25681ZM5.41421 11.1336L9.41421 7.13356L6.58579 4.30514L2.58579 8.30514L5.41421 11.1336ZM6.58579 7.13356L10.5858 11.1336L13.4142 8.30514L9.41421 4.30514L6.58579 7.13356ZM10.5808 8.31014L9.6408 9.25681L12.4792 12.0752L13.4192 11.1286L10.5808 8.31014Z" fill="#344450" mask="url(#path-1-inside-1_1177_2815)"/>
</svg>
