<svg fill="none" height="40" viewBox="0 0 40 40" width="40" xmlns="http://www.w3.org/2000/svg"><path d="m12.362 13.7732v18.2268h-6.01565v-18.2268zm.3828-5.6281c.0121.89509-.2947 1.64305-.9206 2.2439-.6258.6008-1.4492.9012-2.47003.9012h-.03646c-.99653 0-1.79861-.3004-2.40625-.9012-.60764-.60085-.91146-1.34881-.91146-2.2439 0-.90736.31293-1.65838.9388-2.25307s1.44314-.89203 2.45182-.89203 1.81688.29734 2.42448.89203.9175 1.34571.9297 2.25307zm21.2552 13.408v10.4469h-5.9974v-9.748c0-1.2874-.2461-2.2959-.7383-3.0255s-1.2608-1.0943-2.306-1.0943c-.7656 0-1.4067.2115-1.9231.6345-.5165.423-.9024.9472-1.1576 1.5725-.1337.3679-.2005.8645-.2005 1.4898v10.171h-5.9974c.0243-4.8924.0364-8.859.0364-11.8999 0-3.0408-.006-4.8555-.0182-5.4441l-.0182-.8828h5.9974v2.6485h-.0365c.2431-.3924.4922-.7357.7474-1.03s.5985-.6131 1.03-.9564c.4314-.3433.96-.61 1.5859-.8001.6259-.19 1.3216-.2851 2.0872-.2851 2.0782 0 3.7492.6959 5.0131 2.0876s1.8958 3.4301 1.8958 6.1154z" fill="#fff"/></svg>