<svg width="40" height="40" viewBox="0 0 40 40" fill="none" xmlns="http://www.w3.org/2000/svg">
<path d="M28.01 10.19C27.654 10.19 27.306 10.2956 27.01 10.4934C26.714 10.6911 26.4833 10.9723 26.347 11.3012C26.2108 11.6301 26.1751 11.992 26.2446 12.3412C26.314 12.6903 26.4855 13.0111 26.7372 13.2628C26.9889 13.5145 27.3097 13.686 27.6588 13.7554C28.008 13.8249 28.3699 13.7892 28.6988 13.653C29.0277 13.5167 29.3089 13.286 29.5066 12.99C29.7044 12.694 29.81 12.346 29.81 11.99C29.81 11.5126 29.6204 11.0548 29.2828 10.7172C28.9452 10.3796 28.4874 10.19 28.01 10.19V10.19ZM34.91 13.82C34.8808 12.5754 34.6477 11.3441 34.22 10.175C33.8386 9.1747 33.245 8.26892 32.48 7.52C31.7372 6.75114 30.8293 6.16126 29.825 5.795C28.659 5.35424 27.4263 5.11581 26.18 5.09C24.59 5 24.08 5 20 5C15.92 5 15.41 5 13.82 5.09C12.5737 5.11581 11.341 5.35424 10.175 5.795C9.17251 6.16497 8.2654 6.75434 7.52 7.52C6.75114 8.26277 6.16126 9.17066 5.795 10.175C5.35424 11.341 5.11581 12.5737 5.09 13.82C5 15.41 5 15.92 5 20C5 24.08 5 24.59 5.09 26.18C5.11581 27.4263 5.35424 28.659 5.795 29.825C6.16126 30.8293 6.75114 31.7372 7.52 32.48C8.2654 33.2457 9.17251 33.835 10.175 34.205C11.341 34.6458 12.5737 34.8842 13.82 34.91C15.41 35 15.92 35 20 35C24.08 35 24.59 35 26.18 34.91C27.4263 34.8842 28.659 34.6458 29.825 34.205C30.8293 33.8387 31.7372 33.2489 32.48 32.48C33.2484 31.7339 33.8425 30.8273 34.22 29.825C34.6477 28.6559 34.8808 27.4246 34.91 26.18C34.91 24.59 35 24.08 35 20C35 15.92 35 15.41 34.91 13.82V13.82ZM32.21 26C32.1991 26.9522 32.0266 27.8956 31.7 28.79C31.4605 29.4428 31.0758 30.0326 30.575 30.515C30.0885 31.0108 29.4998 31.3947 28.85 31.64C27.9556 31.9666 27.0122 32.1391 26.06 32.15C24.56 32.225 24.005 32.24 20.06 32.24C16.115 32.24 15.56 32.24 14.06 32.15C13.0713 32.1685 12.0869 32.0163 11.15 31.7C10.5287 31.4421 9.96703 31.0592 9.5 30.575C9.00213 30.0931 8.62226 29.5028 8.39 28.85C8.02378 27.9427 7.82067 26.9779 7.79 26C7.79 24.5 7.7 23.945 7.7 20C7.7 16.055 7.7 15.5 7.79 14C7.79672 13.0266 7.97443 12.0619 8.315 11.15C8.57907 10.5169 8.9844 9.95249 9.5 9.5C9.95572 8.98425 10.5189 8.57464 11.15 8.3C12.0643 7.97007 13.028 7.79762 14 7.79C15.5 7.79 16.055 7.7 20 7.7C23.945 7.7 24.5 7.7 26 7.79C26.9522 7.80092 27.8956 7.97337 28.79 8.3C29.4716 8.55298 30.0834 8.96427 30.575 9.5C31.0666 9.96077 31.4506 10.5241 31.7 11.15C32.0334 12.0634 32.2059 13.0277 32.21 14C32.285 15.5 32.3 16.055 32.3 20C32.3 23.945 32.285 24.5 32.21 26ZM20 12.305C18.4787 12.308 16.9924 12.7618 15.729 13.6091C14.4655 14.4565 13.4816 15.6593 12.9015 17.0656C12.3213 18.472 12.1711 20.0187 12.4697 21.5104C12.7683 23.0021 13.5024 24.3718 14.5791 25.4465C15.6559 26.5211 17.027 27.2525 18.5193 27.5482C20.0116 27.8439 21.558 27.6907 22.9632 27.1078C24.3684 26.525 25.5693 25.5387 26.4142 24.2736C27.2591 23.0084 27.71 21.5213 27.71 20C27.712 18.9877 27.5138 17.9849 27.1269 17.0494C26.7399 16.114 26.1718 15.2642 25.4553 14.5491C24.7388 13.8339 23.8879 13.2675 22.9517 12.8824C22.0155 12.4973 21.0123 12.301 20 12.305V12.305ZM20 24.995C19.0121 24.995 18.0464 24.702 17.2249 24.1532C16.4035 23.6043 15.7633 22.8242 15.3852 21.9115C15.0072 20.9988 14.9082 19.9945 15.101 19.0255C15.2937 18.0566 15.7694 17.1666 16.468 16.468C17.1666 15.7694 18.0566 15.2937 19.0255 15.101C19.9945 14.9082 20.9988 15.0072 21.9115 15.3852C22.8242 15.7633 23.6043 16.4035 24.1532 17.2249C24.702 18.0464 24.995 19.0121 24.995 20C24.995 20.656 24.8658 21.3055 24.6148 21.9115C24.3638 22.5175 23.9958 23.0682 23.532 23.532C23.0682 23.9958 22.5175 24.3638 21.9115 24.6148C21.3055 24.8658 20.656 24.995 20 24.995V24.995Z" fill="white"/>
</svg>
