<svg fill="none" height="40" viewBox="0 0 40 40" width="40" xmlns="http://www.w3.org/2000/svg"><path d="m26.8571 20.4286c0-.4405-.1785-.7619-.5357-.9643l-9.1428-5.7143c-.3691-.2381-.756-.25-1.1607-.0357-.3929.2143-.5893.5476-.5893 1v11.4286c0 .4523.1964.7857.5893 1 .1904.0952.375.1428.5535.1428.2381 0 .4405-.0595.6072-.1786l9.1428-5.7142c.3572-.2024.5357-.5239.5357-.9643zm9.1429 0c0 1.1428-.006 2.0357-.0179 2.6785-.0119.6429-.0625 1.4554-.1517 2.4375-.0893.9822-.2233 1.8602-.4018 2.634-.1905.869-.6012 1.6012-1.2322 2.1964-.6309.5952-1.369.9405-2.2143 1.0357-2.6428.2976-6.6369.4464-11.9821.4464s-9.3393-.1488-11.98214-.4464c-.84524-.0952-1.58631-.4405-2.22322-1.0357-.6369-.5952-1.05059-1.3274-1.24107-2.1964-.16667-.7738-.29464-1.6518-.38393-2.634-.08928-.9821-.13988-1.7946-.15178-2.4375-.01191-.6428-.01786-1.5357-.01786-2.6785 0-1.1429.00595-2.0357.01786-2.6786.0119-.6429.0625-1.4554.15178-2.4375.08929-.9821.22322-1.8601.40179-2.6339.19047-.8691.60119-1.6012 1.23214-2.1965.63095-.5952 1.36905-.94043 2.21429-1.03567 2.64284-.29762 6.63694-.44643 11.98214-.44643s9.3393.14881 11.9821.44643c.8453.09524 1.5864.44047 2.2233 1.03567.6369.5953 1.0506 1.3274 1.241 2.1965.1667.7738.2947 1.6518.384 2.6339.0892.9821.1398 1.7946.1517 2.4375s.0179 1.5357.0179 2.6786z" fill="#4e5d6b"/></svg>