<svg width="40" height="40" viewBox="0 0 40 40" fill="none" xmlns="http://www.w3.org/2000/svg">
<path d="M34.0716 11.7143C33.2739 12.881 32.3097 13.875 31.1787 14.6964C31.1906 14.8631 31.1966 15.1131 31.1966 15.4464C31.1966 16.994 30.9704 18.5387 30.518 20.0804C30.0656 21.622 29.3781 23.1012 28.4555 24.5179C27.5329 25.9345 26.4347 27.1875 25.1609 28.2768C23.887 29.3661 22.3513 30.2351 20.5537 30.8839C18.7561 31.5327 16.8335 31.8571 14.7859 31.8571C11.5597 31.8571 8.60728 30.994 5.92871 29.2679C6.34538 29.3155 6.80966 29.3393 7.32157 29.3393C10.0001 29.3393 12.387 28.5179 14.4823 26.875C13.2323 26.8512 12.1132 26.4673 11.1251 25.7232C10.137 24.9792 9.45847 24.0298 9.08943 22.875C9.48228 22.9345 9.84538 22.9643 10.1787 22.9643C10.6906 22.9643 11.1966 22.8988 11.6966 22.7679C10.3632 22.494 9.25907 21.8304 8.38407 20.7768C7.50907 19.7232 7.07157 18.5 7.07157 17.1071V17.0357C7.88109 17.4881 8.75014 17.7321 9.67871 17.7679C8.893 17.244 8.268 16.5595 7.80371 15.7143C7.33943 14.869 7.10728 13.9524 7.10728 12.9643C7.10728 11.9167 7.36919 10.9464 7.893 10.0536C9.33347 11.8274 11.0864 13.247 13.1519 14.3125C15.2174 15.378 17.4287 15.9702 19.7859 16.0893C19.6906 15.6369 19.643 15.1964 19.643 14.7679C19.643 13.1726 20.2055 11.8125 21.3305 10.6875C22.4555 9.5625 23.8156 9 25.4109 9C27.0775 9 28.4823 9.60714 29.6251 10.8214C30.9228 10.5714 32.143 10.1071 33.2859 9.42857C32.8454 10.7976 32.0001 11.8571 30.7501 12.6071C31.8573 12.4881 32.9644 12.1905 34.0716 11.7143Z" fill="white"/>
</svg>
