<svg width="8" height="6" viewBox="0 0 8 6" fill="none" xmlns="http://www.w3.org/2000/svg">
    <mask id="path-1-inside-1_1403_58" fill="white">
        <path d="M0.94 0.333984L4 3.39398L7.06 0.333984L8 1.28065L4 5.28065L0 1.28065L0.94 0.333984Z"/>
    </mask>
    <path d="M0.94 0.333984L4 3.39398L7.06 0.333984L8 1.28065L4 5.28065L0 1.28065L0.94 0.333984Z" fill="#344450"/>
    <path d="M0.94 0.333984L2.35421 -1.08023L0.934994 -2.49945L-0.479202 -1.07522L0.94 0.333984ZM4 3.39398L2.58579 4.8082L4 6.22241L5.41421 4.8082L4 3.39398ZM7.06 0.333984L8.4792 -1.07522L7.06501 -2.49945L5.64579 -1.08023L7.06 0.333984ZM8 1.28065L9.41421 2.69486L10.8234 1.28564L9.4192 -0.128556L8 1.28065ZM4 5.28065L2.58579 6.69486L4 8.10908L5.41421 6.69486L4 5.28065ZM0 1.28065L-1.4192 -0.128556L-2.82344 1.28564L-1.41421 2.69486L0 1.28065ZM-0.474214 1.7482L2.58579 4.8082L5.41421 1.97977L2.35421 -1.08023L-0.474214 1.7482ZM5.41421 4.8082L8.47421 1.7482L5.64579 -1.08023L2.58579 1.97977L5.41421 4.8082ZM5.6408 1.74319L6.5808 2.68986L9.4192 -0.128556L8.4792 -1.07522L5.6408 1.74319ZM6.58579 -0.133562L2.58579 3.86644L5.41421 6.69486L9.41421 2.69486L6.58579 -0.133562ZM5.41421 3.86644L1.41421 -0.133562L-1.41421 2.69486L2.58579 6.69486L5.41421 3.86644ZM1.4192 2.68986L2.3592 1.74319L-0.479202 -1.07522L-1.4192 -0.128556L1.4192 2.68986Z" fill="#344450" mask="url(#path-1-inside-1_1403_58)"/>
</svg>
