<svg width="8" height="14" viewBox="0 0 8 14" fill="none"
    xmlns="http://www.w3.org/2000/svg">
    <path fill-rule="evenodd" clip-rule="evenodd" d="M0.167835 0.158175C0.220903 0.108036 0.283944 0.0682557 0.35335 0.0411135C0.422755 0.0139713 0.49716 0 0.572304 0C0.647447 0 0.721852 0.0139713 0.791258 0.0411135C0.860663 0.0682557 0.923705 0.108036 0.976772 0.158175L7.83216 6.61896C7.88537 6.66897 7.92758 6.72838 7.95638 6.79379C7.98518 6.8592 8 6.92932 8 7.00014C8 7.07096 7.98518 7.14108 7.95638 7.20649C7.92758 7.2719 7.88537 7.33131 7.83216 7.38133L0.976772 13.8421C0.8695 13.9432 0.724009 14 0.572304 14C0.420599 14 0.275107 13.9432 0.167835 13.8421C0.0605638 13.741 0.000299105 13.6039 0.000299105 13.4609C0.000299105 13.3179 0.0605638 13.1808 0.167835 13.0797L6.6199 7.00014L0.167835 0.920547C0.114634 0.870534 0.0724241 0.811122 0.0436241 0.745711C0.0148241 0.680301 0 0.610179 0 0.539361C0 0.468543 0.0148241 0.398421 0.0436241 0.33301C0.0724241 0.2676 0.114634 0.208187 0.167835 0.158175V0.158175Z" fill="#0D0E10"/>
</svg>
