<svg width="40" height="40" viewBox="0 0 40 40" fill="none" xmlns="http://www.w3.org/2000/svg">
<path d="M12.362 13.7732V32H6.34635V13.7732H12.362ZM12.7448 8.1451C12.7569 9.04019 12.4501 9.78815 11.8242 10.389C11.1984 10.9898 10.375 11.2902 9.35417 11.2902H9.31771C8.32118 11.2902 7.5191 10.9898 6.91146 10.389C6.30382 9.78815 6 9.04019 6 8.1451C6 7.23774 6.31293 6.48672 6.9388 5.89203C7.56467 5.29734 8.38194 5 9.39062 5C10.3993 5 11.2075 5.29734 11.8151 5.89203C12.4227 6.48672 12.7326 7.23774 12.7448 8.1451ZM34 21.5531V32H28.0026V22.252C28.0026 20.9646 27.7565 19.9561 27.2643 19.2265C26.7721 18.4969 26.0035 18.1322 24.9583 18.1322C24.1927 18.1322 23.5516 18.3437 23.0352 18.7667C22.5187 19.1897 22.1328 19.7139 21.8776 20.3392C21.7439 20.7071 21.6771 21.2037 21.6771 21.829V32H15.6797C15.704 27.1076 15.7161 23.141 15.7161 20.1001C15.7161 17.0593 15.7101 15.2446 15.6979 14.656L15.6797 13.7732H21.6771V16.4217H21.6406C21.8837 16.0293 22.1328 15.686 22.388 15.3917C22.6432 15.0974 22.9865 14.7786 23.418 14.4353C23.8494 14.092 24.378 13.8253 25.0039 13.6352C25.6298 13.4452 26.3255 13.3501 27.0911 13.3501C29.1693 13.3501 30.8403 14.046 32.1042 15.4377C33.3681 16.8294 34 18.8678 34 21.5531Z" fill="#0077B5"/>
</svg>
